<!-- <?xml version="1.0" encoding="iso-8859-1"?>
<svg version="1.1" id="Layer_1" xmlns="http://www.w3.org/2000/svg" xmlns:xlink="http://www.w3.org/1999/xlink" x="0px" y="0px"
	 viewBox="0 0 492.004 492.004" style="enable-background:new 0 0 492.004 492.004;" xml:space="preserve" fill="#fff" >
<g>
	<g>
		<path d="M382.678,226.804L163.73,7.86C158.666,2.792,151.906,0,144.698,0s-13.968,2.792-19.032,7.86l-16.124,16.12
			c-10.492,10.504-10.492,27.576,0,38.064L293.398,245.9l-184.06,184.06c-5.064,5.068-7.86,11.824-7.86,19.028
			c0,7.212,2.796,13.968,7.86,19.04l16.124,16.116c5.068,5.068,11.824,7.86,19.032,7.86s13.968-2.792,19.032-7.86L382.678,265
			c5.076-5.084,7.864-11.872,7.848-19.088C390.542,238.668,387.754,231.884,382.678,226.804z" />
	</g>
</g>
<g>
</g>
<g>
</g>
<g>
</g>
<g>
</g>
<g>
</g>
<g>
</g>
<g>
</g>
<g>
</g>
<g>
</g>
<g>
</g>
<g>
</g>
<g>
</g>
<g>
</g>
<g>
</g>
<g>
</g>
</svg>  -->

<svg xmlns="http://www.w3.org/2000/svg" width="20"  viewBox="0 0 13.503 23.619">
  <path id="Icon_ionic-ios-arrow-back" data-name="Icon ionic-ios-arrow-back" d="M15.321,18l8.937-8.93a1.688,1.688,0,0,0-2.391-2.384L11.742,16.8a1.685,1.685,0,0,0-.049,2.327L21.86,29.32a1.688,1.688,0,0,0,2.391-2.384Z" transform="translate(-11.251 -6.194)" fill="#fff"/>
</svg>
